<?xml version="1.0" encoding="UTF-8"?>
<svg version="1.1" xmlns="http://www.w3.org/2000/svg" width="512" height="512">
<path d="M0 0 C1.06118042 -0.0049649 2.12236084 -0.00992981 3.21569824 -0.01504517 C6.71403665 -0.02960624 10.21232967 -0.03645963 13.71069336 -0.04199219 C16.15579732 -0.04774976 18.60090129 -0.05350741 21.04600525 -0.05926514 C26.17113453 -0.06975872 31.29624821 -0.07561176 36.42138672 -0.07910156 C42.95870759 -0.08457484 49.495819 -0.10858513 56.03307438 -0.13707352 C61.08542972 -0.1557861 66.13773555 -0.16091013 71.1901226 -0.16243744 C73.59843525 -0.16544637 76.0067474 -0.1734147 78.41502571 -0.18662262 C114.43645294 -0.37003618 114.43645294 -0.37003618 128.04663086 12.89941406 C133.27823576 18.3872128 138.04630912 24.28814004 142.80053711 30.18847656 C146.21477336 34.35231276 149.75387126 38.40271701 153.29125977 42.46191406 C156.42652229 46.06284587 159.53789273 49.68082943 162.60986328 53.3359375 C163.96258216 54.94338448 165.32419186 56.54292471 166.68725586 58.14160156 C168.34216489 60.10062863 169.97165033 62.08152862 171.57006836 64.08691406 C172.30612305 64.97765625 173.04217773 65.86839844 173.80053711 66.78613281 C174.42057617 67.56214844 175.04061523 68.33816406 175.67944336 69.13769531 C184.22401426 75.89508115 195.99087863 74.59519303 206.27514648 74.60058594 C219.94098747 74.80972018 230.96237164 77.91641405 241.23803711 87.16113281 C247.89783352 94.19554277 252.30292565 103.3380788 252.41503906 113.078125 C252.4278743 114.05303894 252.44070953 115.02795288 252.45393372 116.03240967 C252.46501411 117.60433075 252.46501411 117.60433075 252.47631836 119.20800781 C252.48439011 120.29317688 252.49246185 121.37834595 252.5007782 122.49639893 C252.51460231 124.79283051 252.52533194 127.08928249 252.53320312 129.38574219 C252.55040463 132.88418858 252.5943059 136.38168702 252.63842773 139.87988281 C252.64855627 142.11425089 252.65707187 144.34862697 252.66381836 146.58300781 C252.68132645 147.62285828 252.69883453 148.66270874 252.71687317 149.73406982 C252.6949519 157.13357199 251.49075431 162.4661602 246.45678711 168.18457031 C245.88959961 168.63058594 245.32241211 169.07660156 244.73803711 169.53613281 C244.17084961 169.99761719 243.60366211 170.45910156 243.01928711 170.93457031 C239.96838084 173.03541366 237.99630336 174.16113281 234.23803711 174.16113281 C234.2006543 173.13375 234.16327148 172.10636719 234.12475586 171.04785156 C233.33475838 153.07160042 228.78983717 137.83294586 215.23803711 125.16113281 C201.26545239 113.23786052 184.95100228 110.86540664 167.23803711 112.16113281 C154.26215339 114.48536992 142.49617931 120.83089266 134.23803711 131.16113281 C124.61970271 145.17788704 122.32642142 157.74698391 121.23803711 175.16113281 C59.85803711 175.16113281 -1.52196289 175.16113281 -64.76196289 175.16113281 C-65.09196289 169.88113281 -65.42196289 164.60113281 -65.76196289 159.16113281 C-68.75303501 143.906665 -75.77440336 130.28184614 -88.76196289 121.16113281 C-103.37450864 112.46576608 -118.04555849 108.83700678 -134.76196289 112.78613281 C-149.23884346 116.54147125 -160.90499176 124.80500845 -169.22680664 137.33691406 C-174.16553536 146.4226669 -176.77129431 156.14577487 -177.32446289 166.41113281 C-177.36764648 167.15621094 -177.41083008 167.90128906 -177.45532227 168.66894531 C-177.56093014 170.49948181 -177.66190491 172.33028457 -177.76196289 174.16113281 C-185.27469425 172.85622332 -189.18908828 169.04425006 -193.56274414 163.06347656 C-195.61087699 159.81448406 -195.89902456 157.07511056 -195.95483398 153.3293457 C-195.97089691 152.34724625 -195.98695984 151.36514679 -196.00350952 150.35328674 C-196.04824565 145.83701391 -196.0890761 141.32088669 -196.11206055 136.80444336 C-196.12855075 134.43324929 -196.15574773 132.06210348 -196.1940918 129.69116211 C-196.24932991 126.25511125 -196.27081268 122.82022636 -196.28540039 119.38378906 C-196.30806976 118.33957291 -196.33073914 117.29535675 -196.35409546 116.21949768 C-196.32153058 104.67375279 -191.86277008 94.40461567 -183.76196289 86.16113281 C-172.74654373 76.36964911 -160.09698577 74.56840852 -145.80883789 74.69238281 C-144.41407308 74.68753908 -143.01931464 74.68036947 -141.62457275 74.67102051 C-137.25360407 74.64598427 -132.88297372 74.65113133 -128.51196289 74.66113281 C-123.42415622 74.67273349 -118.33702823 74.67129548 -113.24930573 74.6370697 C-111.23486029 74.63006035 -109.22037639 74.64681414 -107.20599365 74.66418457 C-98.72634299 74.6175802 -92.29013544 73.59550692 -85.44946289 68.40722656 C-84.89258789 67.81039062 -84.33571289 67.21355469 -83.76196289 66.59863281 C-83.10583008 65.89738281 -82.44969727 65.19613281 -81.77368164 64.47363281 C-78.87311856 61.13939331 -76.07975046 57.72784238 -73.31274414 54.28222656 C-70.38553617 50.66392107 -67.32287921 47.16632584 -64.26196289 43.66113281 C-60.52759015 39.37927349 -56.83736208 35.0778024 -53.26196289 30.66113281 C-51.76316127 28.82681964 -50.26303995 26.99358438 -48.76196289 25.16113281 C-48.27228027 24.5570459 -47.78259766 23.95295898 -47.27807617 23.33056641 C-34.9654298 8.22520669 -34.9654298 8.22520669 -25.76196289 4.16113281 C-25.05297852 3.84015625 -24.34399414 3.51917969 -23.61352539 3.18847656 C-15.92898739 0.02338907 -8.16318493 0.0092103 0 0 Z M-36.21118164 37.04003906 C-39.13838858 40.65834328 -42.20101887 44.15596515 -45.26196289 47.66113281 C-49.86144344 52.93421084 -54.35018636 58.27080749 -58.75024414 63.71191406 C-61.27042527 66.78017342 -63.8912178 69.74919382 -66.54711914 72.70019531 C-67.86852542 73.97260724 -67.86852542 73.97260724 -67.76196289 75.16113281 C-33.44196289 75.16113281 0.87803711 75.16113281 36.23803711 75.16113281 C36.23803711 56.02113281 36.23803711 36.88113281 36.23803711 17.16113281 C28.70991211 17.07863281 21.18178711 16.99613281 13.42553711 16.91113281 C11.07195068 16.8747168 8.71836426 16.83830078 6.29345703 16.80078125 C4.39348254 16.78908083 2.49349788 16.77889223 0.59350586 16.77050781 C-0.36503296 16.75004395 -1.32357178 16.72958008 -2.31115723 16.70849609 C-18.85512825 16.70010346 -26.4442087 24.8777118 -36.21118164 37.04003906 Z M53.23803711 17.16113281 C53.23803711 36.30113281 53.23803711 55.44113281 53.23803711 75.16113281 C87.55803711 75.16113281 121.87803711 75.16113281 157.23803711 75.16113281 C153.44166207 70.09929943 149.68945301 65.2244852 145.55053711 60.47363281 C144.49416997 59.25130275 143.43818884 58.02863901 142.38256836 56.80566406 C141.85614746 56.19674316 141.32972656 55.58782227 140.78735352 54.96044922 C138.4188593 52.20977126 136.07812601 49.43597373 133.73803711 46.66113281 C129.78786581 41.98751853 125.83292205 37.31801885 121.86303711 32.66113281 C121.37512695 32.08556641 120.8872168 31.51 120.38452148 30.91699219 C114.52263087 24.05527428 109.5029192 18.67943738 100.23803711 17.16113281 C98.61230141 17.07918103 96.98375106 17.04321984 95.35595703 17.04760742 C94.40233276 17.04772827 93.4487085 17.04784912 92.46618652 17.04797363 C90.98233459 17.05564758 90.98233459 17.05564758 89.46850586 17.06347656 C88.54960571 17.06448364 87.63070557 17.06549072 86.68395996 17.06652832 C83.26447291 17.07174461 79.8450037 17.08570585 76.42553711 17.09863281 C68.77366211 17.11925781 61.12178711 17.13988281 53.23803711 17.16113281 Z " fill="#000000" transform="translate(227.761962890625,267.8388671875)"/>
<path d="M0 0 C1.30813113 1.21162965 2.59909819 2.4419768 3.875 3.6875 C17.87748155 15.02753788 33.40392118 17.73367238 50.875 16.6875 C64.20891084 14.89342762 76.41169135 8.15080865 85.875 -1.3125 C94.25758172 -2.01707045 102.12622081 2.34490197 108.5625 7.3125 C116.06680559 14.21362264 121.25020523 23.94484254 122.19042969 34.09155273 C122.34925307 37.98247263 122.38260924 41.8559693 122.375 45.75 C122.40291015 47.08660411 122.43155152 48.42319315 122.4609375 49.75976562 C122.47596203 57.26076369 122.17687589 63.03528849 116.875 68.6875 C112.25536559 72.18039431 108.11361219 72.8103418 102.42985535 72.82794189 C101.32380447 72.83365204 100.2177536 72.83936218 99.07818604 72.84524536 C97.86926697 72.84636322 96.6603479 72.84748108 95.41479492 72.84863281 C93.49957787 72.85608017 93.49957787 72.85608017 91.54566956 72.86367798 C88.04554855 72.87677847 84.5454467 72.88324231 81.04530501 72.88768864 C78.85687933 72.89062311 76.66845884 72.89472862 74.48003578 72.89919281 C67.62803491 72.91286144 60.77604595 72.92253125 53.92403239 72.9263947 C46.02346639 72.9308743 38.12307349 72.94842018 30.22256011 72.9773953 C24.10946589 72.99903426 17.9964203 73.00910016 11.8832882 73.01043582 C8.23502809 73.01148225 4.58693084 73.01735536 0.93871117 73.03525543 C-3.13316933 73.05484619 -7.20468887 73.05043836 -11.27661133 73.04394531 C-12.4794577 73.0531601 -13.68230408 73.06237488 -14.92160034 73.0718689 C-22.69650723 73.03301807 -27.89579846 72.48614134 -33.9375 67.25 C-39.03058255 61.28381759 -38.49743403 55.79860754 -38.49560547 48.17260742 C-38.49993519 46.15519953 -38.53614787 44.14006164 -38.57421875 42.12304688 C-38.61417764 28.6901988 -35.16102475 18.7396867 -26.125 8.6875 C-20.01681481 3.14488751 -7.93146241 -5.98057851 0 0 Z " fill="#000000" transform="translate(214.125,124.3125)"/>
<path d="M0 0 C1.8671875 1.6015625 1.8671875 1.6015625 3.875 3.625 C15.21489423 13.9966274 30.14419414 18.73371527 45.3515625 18.34765625 C60.28055155 16.92508663 72.29413461 11.434817 82.61328125 0.66015625 C85 -1 85 -1 88.01953125 -0.8828125 C97.06531769 1.79654233 104.66721895 7.50049777 109.57421875 15.59765625 C113.99770568 24.2038099 114.2395125 31.25038118 114.3125 40.875 C114.34150391 42.14214844 114.37050781 43.40929687 114.40039062 44.71484375 C114.47975543 56.32652541 114.47975543 56.32652541 110 61 C105.00536765 64.8500291 101.37005508 66.11851747 95.16900635 66.14044189 C94.1990271 66.14615204 93.22904785 66.15186218 92.22967529 66.15774536 C91.17193909 66.15886322 90.11420288 66.15998108 89.02441406 66.16113281 C87.34569214 66.16858017 87.34569214 66.16858017 85.63305664 66.17617798 C81.92723986 66.19079377 78.22146589 66.19760086 74.515625 66.203125 C71.93975829 66.20887716 69.36389159 66.21463489 66.7880249 66.22039795 C62.07498933 66.22956344 57.36197087 66.23586425 52.64892793 66.2388947 C45.72581999 66.24337139 38.80290988 66.26090399 31.87986207 66.2898953 C25.8720205 66.31417515 19.86427203 66.32184187 13.85637665 66.32357025 C11.3063423 66.32659434 8.75630874 66.33461459 6.20630646 66.34775543 C2.63510736 66.36484426 -0.93561234 66.36292834 -4.50683594 66.35644531 C-6.08129486 66.37026749 -6.08129486 66.37026749 -7.68756104 66.3843689 C-14.04651365 66.34827853 -20.63241652 66.1415961 -25.55642319 61.54802322 C-31.02004836 55.17669388 -30.25087068 49.65237559 -30.3125 41.5625 C-30.34150391 40.32822266 -30.37050781 39.09394531 -30.40039062 37.82226562 C-30.48463957 25.5672843 -27.94395273 17.04307602 -19.375 8.1640625 C-14.40713752 3.63742464 -6.99130435 -2.54701794 0 0 Z " fill="#000000" transform="translate(366,195)"/>
<path d="M0 0 C1.8671875 1.6015625 1.8671875 1.6015625 3.875 3.625 C15.21489423 13.9966274 30.14419414 18.73371527 45.3515625 18.34765625 C60.28055155 16.92508663 72.29413461 11.434817 82.61328125 0.66015625 C85 -1 85 -1 88.01953125 -0.8828125 C97.06531769 1.79654233 104.66721895 7.50049777 109.57421875 15.59765625 C113.99770568 24.2038099 114.2395125 31.25038118 114.3125 40.875 C114.34150391 42.14214844 114.37050781 43.40929687 114.40039062 44.71484375 C114.47975543 56.32652541 114.47975543 56.32652541 110 61 C105.00536765 64.8500291 101.37005508 66.11851747 95.16900635 66.14044189 C94.1990271 66.14615204 93.22904785 66.15186218 92.22967529 66.15774536 C91.17193909 66.15886322 90.11420288 66.15998108 89.02441406 66.16113281 C87.34569214 66.16858017 87.34569214 66.16858017 85.63305664 66.17617798 C81.92723986 66.19079377 78.22146589 66.19760086 74.515625 66.203125 C71.93975829 66.20887716 69.36389159 66.21463489 66.7880249 66.22039795 C62.07498933 66.22956344 57.36197087 66.23586425 52.64892793 66.2388947 C45.72581999 66.24337139 38.80290988 66.26090399 31.87986207 66.2898953 C25.8720205 66.31417515 19.86427203 66.32184187 13.85637665 66.32357025 C11.3063423 66.32659434 8.75630874 66.33461459 6.20630646 66.34775543 C2.63510736 66.36484426 -0.93561234 66.36292834 -4.50683594 66.35644531 C-6.08129486 66.37026749 -6.08129486 66.37026749 -7.68756104 66.3843689 C-14.04651365 66.34827853 -20.63241652 66.1415961 -25.55642319 61.54802322 C-31.02004836 55.17669388 -30.25087068 49.65237559 -30.3125 41.5625 C-30.34150391 40.32822266 -30.37050781 39.09394531 -30.40039062 37.82226562 C-30.48463957 25.5672843 -27.94395273 17.04307602 -19.375 8.1640625 C-14.40713752 3.63742464 -6.99130435 -2.54701794 0 0 Z " fill="#000000" transform="translate(62,195)"/>
<path d="M0 0 C8.59927109 6.50121458 14.01792423 13.70416522 17.75 23.8125 C17.99621094 24.47894531 18.24242187 25.14539063 18.49609375 25.83203125 C21.95363328 37.15845386 19.75719055 49.25070975 15.125 59.875 C8.96629779 71.27913679 -1.31404514 79.03428026 -13.4375 83.05859375 C-26.68342622 86.60923786 -39.07685578 84.26607955 -51.01171875 77.8671875 C-62.39194105 70.64644332 -68.79705534 60.32757047 -71.80859375 47.41796875 C-74.02071452 34.36058333 -71.03786607 22.0684881 -63.87109375 11.0234375 C-49.06631586 -9.16813909 -20.7851062 -13.54181161 0 0 Z " fill="#000000" transform="translate(282.25,43.1875)"/>
<path d="M0 0 C9.70549957 7.29817 16.0991146 15.8824593 18.48828125 27.98046875 C20.14637436 40.39104445 17.35399179 51.7625604 9.875 61.875 C3.31192546 69.76301447 -4.94241865 75.128647 -15.125 76.875 C-27.48341868 77.92405831 -39.33785544 76.83488831 -49.25 68.63671875 C-59.45065287 59.05235532 -64.97515784 49.63158853 -65.4375 35.5 C-65.15946688 23.77354425 -60.80832992 13.58078026 -52.75 5.0625 C-38.45975685 -8.22711343 -16.53025876 -10.79475989 0 0 Z " fill="#000000" transform="translate(431.125,122.125)"/>
<path d="M0 0 C10.76231756 6.75353484 17.44116531 15.51280026 21.015625 27.8359375 C22.96065316 39.89511207 21.02333395 51.13474197 14.3046875 61.4609375 C7.62261879 70.49584731 -1.16636769 76.79129245 -12.359375 78.7109375 C-24.28765242 79.72348279 -35.23585258 78.77077217 -45.171875 71.4609375 C-46.59578568 70.24301752 -47.99299671 68.99306896 -49.359375 67.7109375 C-50.31650391 66.81568359 -50.31650391 66.81568359 -51.29296875 65.90234375 C-59.47203798 57.44184419 -62.79381161 46.14464954 -62.63671875 34.5546875 C-61.47127089 22.6047432 -55.94495885 12.47893892 -47.34375 4.27734375 C-34.3443929 -5.98395979 -14.56391969 -7.95710844 0 0 Z " fill="#000000" transform="translate(124.359375,120.2890625)"/>
<path d="M0 0 C0.82927002 0.00757324 1.65854004 0.01514648 2.51293945 0.02294922 C14.59766086 0.3464679 22.4543606 4.98437681 31.3125 12.8125 C39.5935799 22.21264475 42.28678113 32.41926557 41.97265625 44.875 C40.67132179 58.21002277 35.01066035 67.11127138 25.06640625 75.67578125 C21.22439998 78.44817298 17.13373764 80.05918124 12.625 81.4375 C12.03332031 81.62828125 11.44164062 81.8190625 10.83203125 82.015625 C-0.43261239 84.16886662 -12.85683124 83.02634883 -22.7109375 77.01171875 C-24.70519275 75.57718942 -26.5452329 74.07488505 -28.375 72.4375 C-29.261875 71.65375 -30.14875 70.87 -31.0625 70.0625 C-39.561026 60.41552454 -42.18970112 50.1126428 -41.71484375 37.40234375 C-40.81006627 26.84660643 -36.63702886 18.14885171 -29.375 10.4375 C-20.56361601 3.32861056 -11.27236368 -0.14533079 0 0 Z " fill="#000000" transform="translate(106.375,393.5625)"/>
<path d="M0 0 C8.15858059 6.28210706 13.68313378 15.21089993 15.25 25.4375 C16.27646772 37.79360515 15.23353663 49.66219278 7.00390625 59.5625 C0.76686893 66.23015683 -4.93401667 70.74245846 -13.75 73.4375 C-14.34167969 73.62828125 -14.93335938 73.8190625 -15.54296875 74.015625 C-26.85054382 76.17707298 -38.97913563 74.91493324 -48.98046875 69.15234375 C-58.41156046 62.60348123 -64.63006771 54.20370649 -67.328125 43.046875 C-69.28187033 30.96259832 -67.43405925 19.1988858 -61.1875 8.625 C-46.75472235 -11.10221368 -19.293042 -12.69690737 0 0 Z " fill="#000000" transform="translate(431.75,401.5625)"/>
<path d="M0 0 C34.21473015 8.68609248 66.04051055 24.85767481 92 49 C92.33 49.66 92.66 50.32 93 51 C90.46298366 51.87078114 87.9219473 52.72169516 85.375 53.5625 C84.66214844 53.80935547 83.94929688 54.05621094 83.21484375 54.31054688 C78.79742718 55.74924677 75.57611054 56.44985681 71 55 C68.68359375 53.43359375 68.68359375 53.43359375 66.4375 51.4375 C51.28582127 38.81110105 31.40931839 28.18736377 12.49536133 22.58178711 C9.67161398 21.64053799 7.48295656 20.82174533 5.93432617 18.18676758 C5.169431 16.14330584 4.57019176 14.10496225 4 12 C2.9582568 9.64127041 1.87114082 7.31159012 0.76953125 4.98046875 C0 3 0 3 0 0 Z " fill="#000000" transform="translate(309,50)"/>
<path d="M0 0 C1.30584753 3.9175426 0.33436507 5.15447665 -1.3125 8.875 C-1.76238281 9.90367188 -2.21226562 10.93234375 -2.67578125 11.9921875 C-3.11277344 12.98476563 -3.54976563 13.97734375 -4 15 C-4.2784375 16.30130859 -4.2784375 16.30130859 -4.5625 17.62890625 C-7.01964676 21.681863 -11.373663 22.50197214 -15.6875 24.0625 C-34.91283692 31.49684634 -54.70571497 40.85306415 -70.08203125 54.90234375 C-73.81628855 57.03946453 -77.72596777 55.0730557 -81.6484375 54.02734375 C-82.87820312 53.66769531 -84.10796875 53.30804688 -85.375 52.9375 C-86.62023437 52.57527344 -87.86546875 52.21304688 -89.1484375 51.83984375 C-90.08945313 51.56269531 -91.03046875 51.28554687 -92 51 C-88.24991861 46.14738017 -84.20106142 42.49610257 -79.3125 38.8125 C-78.57209473 38.25151611 -77.83168945 37.69053223 -77.06884766 37.11254883 C-69.06083503 31.14904563 -60.64706682 25.97532741 -52 21 C-51.06969971 20.45351807 -51.06969971 20.45351807 -50.12060547 19.89599609 C-34.63067156 10.84498179 -17.39455161 4.31095473 0 0 Z " fill="#000000" transform="translate(202,50)"/>
</svg>
