<?xml version="1.0" encoding="UTF-8"?>
<svg version="1.1" xmlns="http://www.w3.org/2000/svg" width="512" height="512">
<path d="M0 0 C1.79509038 -0.00543041 3.5901763 -0.01255819 5.38525391 -0.02124023 C10.22828244 -0.03936733 15.07096746 -0.0324502 19.91400146 -0.01972389 C25.00127026 -0.00954091 30.0885112 -0.0190042 35.17578125 -0.02526855 C43.71619911 -0.0325296 52.25647824 -0.02299785 60.796875 -0.00390625 C70.64676532 0.01785948 80.49632436 0.01080701 90.34620667 -0.01121187 C98.82897257 -0.02940994 107.3116392 -0.0319027 115.79441833 -0.0214572 C120.84949161 -0.01524644 125.90440958 -0.01431968 130.95947266 -0.02760315 C135.71375912 -0.03922538 140.46762174 -0.03102041 145.22186279 -0.00802612 C146.95838724 -0.00277289 148.69494785 -0.00419419 150.43145752 -0.01307678 C164.42063375 -0.07799356 176.41471822 1.31246523 186.9375 11.51757812 C198.51748996 23.46961596 210.91164111 43.99603878 213.9375 60.51757812 C214.90051025 60.49663086 215.86352051 60.47568359 216.85571289 60.45410156 C220.45435512 60.3812887 224.05293323 60.33563015 227.65209961 60.29785156 C229.20494565 60.27782942 230.75771719 60.25060295 232.31030273 60.21582031 C234.55210832 60.16688202 236.79291093 60.14451645 239.03515625 60.12695312 C239.72086197 60.10630798 240.40656769 60.08566284 241.11305237 60.06439209 C246.57429728 60.06189272 249.52980236 61.54063178 253.9375 64.51757812 C258.32886547 69.1463147 260.03223032 73.1302891 260.25 79.45507812 C260.11078709 84.67556241 259.16486483 88.22690318 255.42578125 92.07226562 C251.56763045 95.55760635 247.44731357 97.96454507 242.9375 100.51757812 C242.94118717 101.10988031 242.94487434 101.7021825 242.94867325 102.31243324 C243.03707151 116.73498361 243.10323252 131.15750977 243.14474869 145.58027077 C243.16536011 152.55507776 243.1934532 159.52970374 243.23925781 166.50439453 C243.28343628 173.23468898 243.30663441 179.96475648 243.31700897 186.69520187 C243.32440285 189.26365495 243.33884118 191.83209767 243.36042023 194.40047073 C243.38943365 197.99653665 243.39345669 201.59182425 243.39160156 205.18798828 C243.40598267 206.25110229 243.42036377 207.31421631 243.43518066 208.4095459 C243.40142559 214.45188939 242.9633703 217.9163612 238.9375 222.51757812 C231.67500984 229.07153266 223.29591814 227.80776525 214.06079102 227.86767578 C212.19575491 227.88419916 210.33078117 227.91144134 208.46606445 227.94970703 C205.76480554 228.00480054 203.06502824 228.02640051 200.36328125 228.04101562 C199.53903152 228.063685 198.7147818 228.08635437 197.86555481 228.10971069 C191.8129498 228.08789006 187.55222742 226.50144417 182.9375 222.51757812 C179.62006198 218.32548041 178.73892591 214.53729585 178.84375 209.24804688 C178.85728516 208.35883545 178.87082031 207.46962402 178.88476562 206.5534668 C178.91086914 205.5457019 178.91086914 205.5457019 178.9375 204.51757812 C178.33476257 204.55516235 177.73202515 204.59274658 177.11102295 204.63146973 C107.71257459 208.90318663 38.33161148 208.84470969 -31.0625 204.51757812 C-31.04292236 205.26595947 -31.02334473 206.01434082 -31.00317383 206.78540039 C-30.98033325 208.26351196 -30.98033325 208.26351196 -30.95703125 209.77148438 C-30.93745361 210.74674072 -30.91787598 211.72199707 -30.89770508 212.72680664 C-31.21595261 218.11626965 -33.6917365 221.24711439 -37.625 224.89257812 C-42.18946159 227.93555252 -46.56158652 227.70913217 -51.859375 227.75585938 C-52.72637024 227.76393112 -53.59336548 227.77200287 -54.4866333 227.78031921 C-56.32244881 227.79414754 -58.1582899 227.80487529 -59.99414062 227.81274414 C-62.78826263 227.82992906 -65.58119244 227.87382225 -68.375 227.91796875 C-70.16144966 227.92809876 -71.94790935 227.9366139 -73.734375 227.94335938 C-74.97849152 227.96962151 -74.97849152 227.96962151 -76.2477417 227.99641418 C-82.01465528 227.97507456 -85.31286672 226.82333197 -90.0625 223.51757812 C-93.73666526 219.55334719 -95.18684203 216.56873019 -95.18948364 211.19320679 C-95.19230347 210.3101889 -95.19512329 209.42717102 -95.19802856 208.51739502 C-95.19600433 207.55114197 -95.1939801 206.58488892 -95.19189453 205.58935547 C-95.19364685 204.56949554 -95.19539917 203.54963562 -95.19720459 202.49887085 C-95.20161624 199.11706861 -95.19868619 195.73531843 -95.1953125 192.35351562 C-95.19598605 190.00281769 -95.1969565 187.65211982 -95.19821167 185.30142212 C-95.19968797 180.36679422 -95.1975374 175.43218439 -95.19287109 170.49755859 C-95.18719263 164.18614946 -95.19044127 157.87478302 -95.19644356 151.56337547 C-95.20006704 146.70423057 -95.19890205 141.84509568 -95.19631577 136.98595047 C-95.19565046 134.66004049 -95.19646102 132.33412958 -95.19879532 130.00822067 C-95.20134906 126.74617884 -95.19744216 123.48420479 -95.19189453 120.22216797 C-95.19391876 119.2680603 -95.19594299 118.31395264 -95.19802856 117.33093262 C-95.18022628 111.64939742 -94.7862514 106.15407447 -94.0625 100.51757812 C-94.79855469 100.1540625 -95.53460938 99.79054688 -96.29296875 99.41601562 C-103.22016938 95.84718043 -107.49587777 93.03972205 -111.375 86.20507812 C-113.05062871 79.65489319 -112.59976694 74.15934587 -109.26953125 68.24023438 C-106.70238872 64.57644844 -103.18343437 62.13558709 -99.0625 60.51757812 C-96.48715327 60.3497149 -94.02495607 60.28440438 -91.453125 60.32226562 C-90.72631531 60.32509552 -89.99950562 60.32792542 -89.25067139 60.33084106 C-86.93777749 60.3420029 -84.62527612 60.36709961 -82.3125 60.39257812 C-80.74089102 60.40261312 -79.16927596 60.41173806 -77.59765625 60.41992188 C-73.75245378 60.44192908 -69.90754336 60.47643097 -66.0625 60.51757812 C-65.88799316 59.95635254 -65.71348633 59.39512695 -65.53369141 58.81689453 C-63.86609043 53.61507298 -61.92226339 48.7538011 -59.4375 43.89257812 C-59.09267578 43.21308105 -58.74785156 42.53358398 -58.39257812 41.83349609 C-40.68106513 7.43595716 -40.68106513 7.43595716 -21.69482422 1.35023499 C-14.53978131 -0.28995328 -7.30591242 -0.03737118 0 0 Z M-29.8515625 27.43554688 C-42.0239795 43.78651258 -42.0239795 43.78651258 -48.0625 62.51757812 C-46.35610352 62.47312057 -46.35610352 62.47312057 -44.61523438 62.42776489 C-7.45875779 61.48318987 29.68129316 61.36062618 66.84676552 61.38900971 C72.36074051 61.39277978 77.87469754 61.39141809 83.38867188 61.38720703 C120.91781022 61.35921085 158.41805858 61.54006647 195.9375 62.51757812 C193.70096035 50.52430211 185.67713434 38.53371059 178.875 28.51757812 C178.16214844 27.46570313 177.44929687 26.41382813 176.71484375 25.33007812 C170.06106111 18.59207039 162.9391907 16.98799104 153.70318341 16.8575927 C151.27040731 16.85079582 148.8384704 16.86836586 146.40576172 16.88647461 C144.64388307 16.88132919 142.88200958 16.87404324 141.12014771 16.86479187 C136.35982822 16.84635159 131.60007221 16.85916857 126.83977652 16.87888217 C121.8467203 16.89532593 116.85369816 16.88644806 111.86062622 16.88136292 C103.47974699 16.87684919 95.09909147 16.89266914 86.71826172 16.9206543 C77.03986914 16.9527238 67.36187947 16.95267997 57.68345821 16.93543953 C48.35555225 16.9195582 39.02779349 16.926317 29.69989395 16.94337654 C25.73754057 16.9502347 21.77530561 16.94922735 17.81295395 16.94183159 C13.14568689 16.93415194 8.47887671 16.94634959 3.81168747 16.9736805 C2.10251725 16.98054701 0.39330422 16.98068094 -1.31586456 16.97346497 C-13.30597057 16.92868868 -21.68848859 17.70761492 -29.8515625 27.43554688 Z M-94.0625 77.51757812 C-94.0625 78.83757812 -94.0625 80.15757812 -94.0625 81.51757812 C-92.0825 82.17757812 -90.1025 82.83757812 -88.0625 83.51757812 C-87.0725 81.53757812 -86.0825 79.55757813 -85.0625 77.51757812 C-88.0325 77.51757812 -91.0025 77.51757812 -94.0625 77.51757812 Z M-26.84765625 77.96289062 C-28.22021985 77.99201349 -28.22021985 77.99201349 -29.62051201 78.0217247 C-51.15438331 77.0356828 -51.15438331 77.0356828 -69.76953125 85.13867188 C-78.29178198 95.11240083 -78.21151546 109.99972202 -78.265625 122.48242188 C-78.27132507 123.51516739 -78.27702515 124.5479129 -78.28289795 125.61195374 C-78.29230096 127.78613271 -78.29886312 129.96032563 -78.30273438 132.13452148 C-78.31246006 135.44149743 -78.3435368 138.74785648 -78.375 142.0546875 C-78.38152951 144.17642864 -78.38678019 146.29817417 -78.390625 148.41992188 C-78.4029718 149.39831528 -78.4153186 150.37670868 -78.42803955 151.38475037 C-78.39410339 161.95193581 -75.50300328 169.90537092 -68.0625 177.51757812 C-58.21643603 185.40791706 -48.81170987 186.58015386 -36.54296875 187.23632812 C-35.41216385 187.29912964 -34.28135895 187.36193115 -33.11628723 187.42663574 C-30.71490023 187.55928298 -28.31342301 187.69030561 -25.91186523 187.81982422 C-22.32838624 188.01334499 -18.74524042 188.21226136 -15.16210938 188.41210938 C-8.12989789 188.80087065 -1.09649413 189.16274775 5.9375 189.51757812 C6.9346402 189.56990601 7.9317804 189.62223389 8.95913696 189.67614746 C29.7952854 190.7508404 50.64178329 190.75703308 71.5 190.76757812 C72.43427071 190.76860912 73.36854141 190.76964012 74.33112335 190.77070236 C108.98963788 190.80651781 143.48645181 189.80549272 178.08093262 187.68991089 C180.71405047 187.53105853 183.34747741 187.3824782 185.98144531 187.23852539 C187.41732539 187.15719933 188.85319851 187.07575016 190.2890625 186.99414062 C191.45518066 186.9292041 192.62129883 186.86426758 193.82275391 186.79736328 C204.56608322 185.83233307 211.84171135 182.0346963 219.1875 174.26757812 C225.25857941 166.5752198 226.53925438 158.47645648 226.43359375 148.91210938 C226.43504898 147.82983566 226.43650421 146.74756195 226.43800354 145.63249207 C226.43635263 143.35416968 226.4248828 141.07583519 226.40405273 138.79760742 C226.37522358 135.35676264 226.38343849 131.91747516 226.39648438 128.4765625 C227.00784329 105.31267534 227.00784329 105.31267534 217.5234375 85.00195312 C207.01441539 75.62467185 188.540425 78.25314401 175.21484375 77.96289062 C174.2795326 77.94195469 173.34422146 77.92101875 172.38056755 77.89944839 C142.2376827 77.24838968 112.08347145 77.36705851 81.93527639 77.38900876 C76.15533133 77.39277994 70.37540342 77.39141835 64.59545898 77.38720703 C18.87110797 77.33148592 18.87110797 77.33148592 -26.84765625 77.96289062 Z M233.9375 77.51757812 C235.05604586 81.24371966 235.05604586 81.24371966 237.9375 83.51757812 C240.61631567 82.34363356 240.61631567 82.34363356 242.9375 80.51757812 C242.9375 79.52757812 242.9375 78.53757812 242.9375 77.51757812 C239.9675 77.51757812 236.9975 77.51757812 233.9375 77.51757812 Z M-78.0625 191.51757812 C-78.0625 197.78757812 -78.0625 204.05757812 -78.0625 210.51757812 C-68.1625 210.51757812 -58.2625 210.51757812 -48.0625 210.51757812 C-48.0625 208.20757812 -48.0625 205.89757812 -48.0625 203.51757812 C-49.91578975 201.66428838 -53.00882271 201.72880794 -55.5 201.26757812 C-64.12318079 199.47620452 -70.57650091 196.00917758 -78.0625 191.51757812 Z M221.0625 194.26757812 C213.37745173 199.43973759 204.94322182 201.74596072 195.9375 203.51757812 C195.9375 205.82757813 195.9375 208.13757813 195.9375 210.51757812 C205.8375 210.51757812 215.7375 210.51757812 225.9375 210.51757812 C225.9375 204.24757813 225.9375 197.97757813 225.9375 191.51757812 C224.07088568 191.51757812 222.52080367 193.21926018 221.0625 194.26757812 Z " fill="#000000" transform="translate(235.0625,173.482421875)"/>
<path d="M0 0 C1.79509038 -0.00543041 3.5901763 -0.01255819 5.38525391 -0.02124023 C10.22828244 -0.03936733 15.07096746 -0.0324502 19.91400146 -0.01972389 C25.00127026 -0.00954091 30.0885112 -0.0190042 35.17578125 -0.02526855 C43.71619911 -0.0325296 52.25647824 -0.02299785 60.796875 -0.00390625 C70.64676532 0.01785948 80.49632436 0.01080701 90.34620667 -0.01121187 C98.82897257 -0.02940994 107.3116392 -0.0319027 115.79441833 -0.0214572 C120.84949161 -0.01524644 125.90440958 -0.01431968 130.95947266 -0.02760315 C135.71375912 -0.03922538 140.46762174 -0.03102041 145.22186279 -0.00802612 C146.95838724 -0.00277289 148.69494785 -0.00419419 150.43145752 -0.01307678 C164.42063375 -0.07799356 176.41471822 1.31246523 186.9375 11.51757812 C198.51748996 23.46961596 210.91164111 43.99603878 213.9375 60.51757812 C214.90051025 60.49663086 215.86352051 60.47568359 216.85571289 60.45410156 C220.45435512 60.3812887 224.05293323 60.33563015 227.65209961 60.29785156 C229.20494565 60.27782942 230.75771719 60.25060295 232.31030273 60.21582031 C234.55210832 60.16688202 236.79291093 60.14451645 239.03515625 60.12695312 C239.72086197 60.10630798 240.40656769 60.08566284 241.11305237 60.06439209 C246.57429728 60.06189272 249.52980236 61.54063178 253.9375 64.51757812 C259.03822398 69.89401691 260.42313756 74.73888562 260.25 82.02148438 C259.6000351 87.21307899 257.0722183 90.35449187 253.4375 94.08007812 C246.86144027 99.07455387 239.37810426 103.2644164 230.97265625 103.02148438 C228.12672162 102.31682877 226.27368534 101.30205846 223.9375 99.51757812 C222.56640625 96.77539063 222.56640625 96.77539063 221.5 93.64257812 C219.05406607 87.2938844 216.85174856 84.27935827 210.53735352 81.43728638 C200.56066503 77.90799418 187.99708855 79.17756432 177.5 78.96289062 C176.51188324 78.94195469 175.52376648 78.92101875 174.50570679 78.89944839 C143.5124532 78.26364521 112.509811 78.36685125 81.51162148 78.38900876 C75.62199965 78.39278134 69.73239465 78.39141693 63.84277344 78.38720703 C17.10619679 78.33419471 17.10619679 78.33419471 -29.625 78.96289062 C-31.04904648 78.99201349 -31.04904648 78.99201349 -32.50186157 79.0217247 C-52.85455601 78.29354979 -52.85455601 78.29354979 -70.375 86.70507812 C-76.64550064 97.15591253 -77.3712699 110.11549812 -77.3984375 122.02148438 C-77.4050943 123.0660228 -77.4117511 124.11056122 -77.41860962 125.18675232 C-77.4286512 127.37570455 -77.43342931 129.56468687 -77.43310547 131.75366211 C-77.43749445 135.07587368 -77.47394948 138.39677101 -77.51171875 141.71875 C-77.51758582 143.86132365 -77.52155595 146.00390352 -77.5234375 148.14648438 C-77.53780853 149.12388077 -77.55217957 150.10127716 -77.56698608 151.10829163 C-77.50447929 160.67188257 -75.03769839 169.76120445 -68.1953125 176.73242188 C-56.57919742 186.45506765 -42.5129039 186.10071866 -28.10546875 186.74414062 C-27.33678467 186.78112061 -26.56810059 186.81810059 -25.77612305 186.85620117 C-24.3446059 186.92014343 -22.9123293 186.96948233 -21.47973633 187.0012207 C-17.20652997 187.16559539 -14.46856691 187.90749424 -11.0625 190.51757812 C-8.71700326 194.03582324 -8.48258597 195.37533507 -9.0625 199.51757812 C-11.07148041 202.23724528 -12.63560852 204.23258214 -16.06713867 204.91796875 C-18.35582394 205.00930305 -20.58807923 204.95467984 -22.875 204.83007812 C-24.05739258 204.79624023 -24.05739258 204.79624023 -25.26367188 204.76171875 C-27.19743929 204.70311974 -29.13022167 204.6134464 -31.0625 204.51757812 C-31.01609375 205.14664063 -30.9696875 205.77570313 -30.921875 206.42382812 C-30.65850609 212.66943364 -31.22295463 217.43340948 -35.0625 222.51757812 C-40.83605644 227.11285774 -45.47402999 227.69095386 -52.640625 227.75585938 C-53.48542419 227.76393112 -54.33022339 227.77200287 -55.20062256 227.78031921 C-56.98935909 227.79414646 -58.77812186 227.8048747 -60.56689453 227.81274414 C-63.28860174 227.82992725 -66.0090844 227.87382086 -68.73046875 227.91796875 C-70.47134527 227.92809898 -72.21223208 227.93661405 -73.953125 227.94335938 C-74.76066223 227.96086746 -75.56819946 227.97837555 -76.40020752 227.99641418 C-82.10231741 227.97476617 -85.36119945 226.7751634 -90.0625 223.51757812 C-93.75319609 219.53551129 -95.18686116 216.54544176 -95.18948364 211.14851379 C-95.19230347 210.2556366 -95.19512329 209.3627594 -95.19802856 208.44282532 C-95.19600433 207.46565048 -95.1939801 206.48847565 -95.19189453 205.48168945 C-95.19364685 204.45046967 -95.19539917 203.41924988 -95.19720459 202.35678101 C-95.20161599 198.93770681 -95.19868651 195.51868412 -95.1953125 192.09960938 C-95.195986 189.72409556 -95.19695641 187.34858181 -95.19821167 184.97306824 C-95.19968789 179.98716579 -95.19753745 175.00128123 -95.19287109 170.01538086 C-95.18718934 163.63437115 -95.19044342 157.25340365 -95.19644356 150.87239552 C-95.20006443 145.96267888 -95.19890329 141.05297217 -95.19631577 136.14325523 C-95.19564992 133.79139895 -95.19646295 131.43954176 -95.19879532 129.08768654 C-95.20134513 125.79191341 -95.19744774 122.4962076 -95.19189453 119.20043945 C-95.19391876 118.23338577 -95.19594299 117.26633209 -95.19802856 116.26997375 C-95.18141693 110.92696091 -94.84299116 105.8047896 -94.0625 100.51757812 C-94.79855469 100.1540625 -95.53460938 99.79054688 -96.29296875 99.41601562 C-103.22016938 95.84718043 -107.49587777 93.03972205 -111.375 86.20507812 C-113.03423074 79.71899431 -112.6335418 74.18294092 -109.33984375 68.31054688 C-106.64374289 64.52611172 -103.51174858 62.00066098 -99.0625 60.51757812 C-96.54881945 60.43289643 -94.06380626 60.40155927 -91.55078125 60.41992188 C-90.82255661 60.42133682 -90.09433197 60.42275177 -89.34403992 60.42420959 C-87.02098461 60.42980154 -84.69802612 60.4423525 -82.375 60.45507812 C-80.79882952 60.46009417 -79.22265752 60.46465689 -77.64648438 60.46875 C-73.78511902 60.47976832 -69.92382592 60.49702739 -66.0625 60.51757812 C-65.88871826 59.95707764 -65.71493652 59.39657715 -65.53588867 58.8190918 C-63.86028404 53.5841351 -61.88641538 48.71490537 -59.375 43.83007812 C-59.02759766 43.14800293 -58.68019531 42.46592773 -58.32226562 41.76318359 C-41.14691274 8.34861192 -41.14691274 8.34861192 -24.89453125 2.35461426 C-16.66147057 -0.26058361 -8.54847012 -0.0437271 0 0 Z M-29.8515625 27.43554688 C-41.81407508 43.34712128 -41.81407508 43.34712128 -48.0625 61.51757812 C32.4575 61.51757812 112.9775 61.51757812 195.9375 61.51757812 C192.0532162 49.86472673 185.82697141 38.80482581 178.9375 28.64257812 C178.215625 27.57265625 177.49375 26.50273438 176.75 25.40039062 C172.36463125 20.36458272 166.7468661 17.86190858 160.17324448 17.05621147 C155.58515741 16.81119157 150.99861924 16.852286 146.40576172 16.88647461 C144.64388307 16.88132919 142.88200958 16.87404324 141.12014771 16.86479187 C136.35982822 16.84635159 131.60007221 16.85916857 126.83977652 16.87888217 C121.8467203 16.89532593 116.85369816 16.88644806 111.86062622 16.88136292 C103.47974699 16.87684919 95.09909147 16.89266914 86.71826172 16.9206543 C77.03986914 16.9527238 67.36187947 16.95267997 57.68345821 16.93543953 C48.35555225 16.9195582 39.02779349 16.926317 29.69989395 16.94337654 C25.73754057 16.9502347 21.77530561 16.94922735 17.81295395 16.94183159 C13.14568689 16.93415194 8.47887671 16.94634959 3.81168747 16.9736805 C2.10251725 16.98054701 0.39330422 16.98068094 -1.31586456 16.97346497 C-13.30597057 16.92868868 -21.68848859 17.70761492 -29.8515625 27.43554688 Z M-94.0625 77.51757812 C-94.3925 78.50757813 -94.7225 79.49757813 -95.0625 80.51757812 C-91.80852492 82.77643137 -91.80852492 82.77643137 -88.0625 83.51757812 C-87.4025 81.53757812 -86.7425 79.55757813 -86.0625 77.51757812 C-88.7025 77.51757812 -91.3425 77.51757812 -94.0625 77.51757812 Z M233.9375 77.51757812 C235.05604586 81.24371966 235.05604586 81.24371966 237.9375 83.51757812 C240.61631567 82.34363356 240.61631567 82.34363356 242.9375 80.51757812 C242.9375 79.52757812 242.9375 78.53757812 242.9375 77.51757812 C239.9675 77.51757812 236.9975 77.51757812 233.9375 77.51757812 Z M-78.0625 191.51757812 C-78.0625 197.78757812 -78.0625 204.05757812 -78.0625 210.51757812 C-68.1625 210.51757812 -58.2625 210.51757812 -48.0625 210.51757812 C-48.0625 208.20757812 -48.0625 205.89757812 -48.0625 203.51757812 C-49.89285717 201.68722095 -52.90957085 201.77466371 -55.375 201.33007812 C-63.76804768 199.59654476 -70.92085645 196.27867383 -78.0625 191.51757812 Z " fill="#000000" transform="translate(128.0625,64.482421875)"/>
<path d="M0 0 C1.35663506 -0.0098568 1.35663506 -0.0098568 2.74067688 -0.01991272 C5.73768191 -0.03964342 8.7346368 -0.05130879 11.73168945 -0.0612793 C13.26817611 -0.06739259 13.26817611 -0.06739259 14.8357029 -0.07362938 C20.25895613 -0.09449069 25.68218407 -0.10879129 31.10546875 -0.11816406 C36.69969965 -0.12921925 42.29353178 -0.16360894 47.88762188 -0.20333576 C52.19514186 -0.22951779 56.50256713 -0.2378574 60.81015968 -0.24144554 C62.87177023 -0.24630859 64.93337663 -0.25791449 66.99490929 -0.27648354 C69.88624757 -0.30090489 72.7765583 -0.29990419 75.66796875 -0.29296875 C76.93620987 -0.31218384 76.93620987 -0.31218384 78.23007202 -0.33178711 C84.73604767 -0.27514626 90.27342579 1.32969646 94.99731445 5.9934082 C95.5406543 6.85772461 95.5406543 6.85772461 96.0949707 7.73950195 C96.47524414 8.31829102 96.85551758 8.89708008 97.24731445 9.4934082 C100.05279633 14.68294763 99.68462695 20.45253062 99.1574707 26.17700195 C97.4515011 31.58736271 93.67447175 35.01510122 89.1574707 38.17700195 C84.13965375 40.30144798 79.69167806 40.46807588 74.34155273 40.45166016 C73.47570557 40.45677109 72.6098584 40.46188202 71.71777344 40.46714783 C68.86687225 40.48100232 66.01621397 40.48009007 63.1652832 40.4777832 C61.17520051 40.4816726 59.18511864 40.48600778 57.19503784 40.49076843 C53.02737739 40.49822189 48.85980167 40.49794584 44.69213867 40.49267578 C39.36371639 40.48688446 34.03564208 40.50380835 28.7072773 40.52702045 C24.59791044 40.54178644 20.48862682 40.54262555 16.37923813 40.53951073 C14.41533596 40.54002257 12.45142897 40.54523442 10.48755264 40.55532265 C7.73553422 40.56772436 4.98418625 40.5608729 2.23217773 40.54931641 C1.42879974 40.55696014 0.62542175 40.56460388 -0.20230103 40.57247925 C-6.30920918 40.51608674 -11.98722367 39.50313897 -16.8659668 35.52856445 C-17.31198242 34.95879883 -17.75799805 34.3890332 -18.2175293 33.80200195 C-18.67901367 33.23739258 -19.14049805 32.6727832 -19.6159668 32.09106445 C-23.26055209 26.40365428 -23.74001131 20.77395737 -22.8425293 14.17700195 C-20.61106177 8.49777344 -16.72496209 4.67961679 -11.8425293 1.17700195 C-7.8954163 -0.13870238 -4.11582587 0.01293462 0 0 Z M-4.8425293 17.17700195 C-5.1725293 18.82700195 -5.5025293 20.47700195 -5.8425293 22.17700195 C-2.68020879 23.7581622 0.71588778 23.30637317 4.18725586 23.29052734 C5.01660141 23.29067337 5.84594696 23.2908194 6.70042419 23.29096985 C9.44915355 23.29027167 12.19781564 23.28248367 14.9465332 23.2746582 C16.84939538 23.27279369 18.75225803 23.27136994 20.65512085 23.27037048 C25.66928426 23.26654794 30.68341881 23.25671988 35.6975708 23.2456665 C40.8118043 23.23544674 45.92604244 23.23087165 51.0402832 23.22583008 C61.0793584 23.2150974 71.11841215 23.19802411 81.1574707 23.17700195 C81.53965837 21.52085538 81.87142172 19.85243171 82.1574707 18.17700195 C80.36890008 16.38843133 77.95623936 17.05709616 75.57537842 17.05258179 C74.77481018 17.05617706 73.97424194 17.05977234 73.14941406 17.06347656 C72.31046097 17.06333054 71.47150787 17.06318451 70.60713196 17.06303406 C67.82050026 17.06373346 65.03393454 17.0715271 62.24731445 17.0793457 C60.32060279 17.08120979 58.39389065 17.08263373 56.46717834 17.08363342 C51.38559673 17.08745936 46.30404351 17.09729029 41.22247314 17.1083374 C36.04130436 17.11854989 30.86013101 17.12313069 25.67895508 17.12817383 C15.50511445 17.1389125 5.33129493 17.15598983 -4.8425293 17.17700195 Z " fill="#000000" transform="translate(270.842529296875,298.822998046875)"/>
<path d="M0 0 C7.97560958 5.88470653 12.94326728 11.54218895 14.5625 21.4375 C13.40196546 28.78755206 9.96711106 35.22783754 3.9921875 39.75390625 C-5.77693576 45.86439707 -17.00962988 47.36472645 -28.25 44.9375 C-42.71056807 40.62805918 -53.35580698 30.15270438 -60.48681641 17.13623047 C-64.34334687 9.69966004 -66.98296058 2.42537636 -66 -6 C-64.18364983 -10.01110663 -62.36242291 -12.13958315 -58.375 -13.875 C-40.3246676 -19.42894843 -14.88648093 -9.60293718 0 0 Z M-48 2 C-43.90925467 12.68139059 -37.74382275 20.69543229 -28.0625 26.875 C-21.21458998 29.39055878 -15.82022216 29.39921782 -8.9453125 26.984375 C-6.73616244 25.86649184 -5.417347 25.04623606 -4 23 C-4.08616712 19.9362802 -4.46163526 18.52083658 -6.6796875 16.375 C-19.3301562 8.45157476 -32.99643864 3.03472837 -48 2 Z " fill="#000000" transform="translate(121,184)"/>
<path d="M0 0 C2.6805618 2.21146349 3.77835667 3.72324205 4.375 7.16015625 C5.02930623 20.06225719 -2.37708182 32.61781458 -10.3125 42.3125 C-19.46930642 52.16579729 -30.22783805 57.4578287 -43.57421875 58.03125 C-52.77768037 57.94729596 -61.75795957 55.52470859 -68.85546875 49.3984375 C-72.99920508 44.91706339 -75.77198646 39.93841571 -76.12890625 33.7734375 C-75.69658457 26.1488551 -72.04075366 20.73481884 -66.6875 15.5 C-51.73051137 3.29531969 -18.38616823 -10.42165296 0 0 Z M-56.7421875 30.55859375 C-58.20214575 31.92475661 -58.20214575 31.92475661 -58.0625 33.9375 C-56.41976077 37.12634673 -54.22609843 38.65526621 -51 40 C-44.49516393 41.57845327 -39.0901048 41.47970733 -33.12109375 38.3515625 C-24.38022269 32.78187302 -16.44469896 24.32206226 -14 14 C-28.69519092 14 -45.88844641 20.84863255 -56.7421875 30.55859375 Z " fill="#000000" transform="translate(452,281)"/>
<path d="M0 0 C6.66060934 4.53046127 13.34032956 9.8024613 16.19140625 17.578125 C17.31674658 25.23043922 15.67191228 30.30301421 11.50390625 36.703125 C5.38463846 43.98722803 -3.16420287 46.68643785 -12.37109375 47.640625 C-24.90572454 48.18442677 -34.76242322 44.36960792 -44.28125 36.359375 C-54.57829959 26.72802188 -63.03415478 13.89866004 -63.93359375 -0.546875 C-63.41071159 -5.02872211 -62.56957277 -6.99288506 -59.49609375 -10.296875 C-43.40279991 -20.12342539 -14.67775709 -8.51533999 0 0 Z M-45.49609375 3.703125 C-40.38860385 15.13693761 -34.30360719 25.14624457 -22.24609375 30.015625 C-16.41266222 31.08508745 -11.00961786 30.82618896 -5.55859375 28.390625 C-3.45590569 26.67024386 -1.9819116 24.97095224 -0.49609375 22.703125 C-11.40194363 10.77485169 -27.13325096 6.69545238 -42.49609375 3.703125 C-43.48609375 3.703125 -44.47609375 3.703125 -45.49609375 3.703125 Z " fill="#000000" transform="translate(225.49609375,291.296875)"/>
<path d="M0 0 C0.74185547 -0.02835938 1.48371094 -0.05671875 2.24804688 -0.0859375 C6.42190219 -0.1008043 8.0109449 0.16990769 11.42578125 2.8125 C13.4375 5.5 13.4375 5.5 14.0625 9 C13.4375 12.5 13.4375 12.5 11.75 15.375 C6.65974469 18.6404468 1.3721728 18.40441962 -4.5625 18.5 C-4.8925 19.82 -5.2225 21.14 -5.5625 22.5 C-4.799375 22.7475 -4.03625 22.995 -3.25 23.25 C-0.21436132 24.66192497 0.88254874 25.55377656 2.4375 28.5 C2.9375 31.4375 2.9375 31.4375 2.4375 34.5 C0.375 37.375 0.375 37.375 -2.5625 39.5 C-7.76217286 40.25631605 -11.18743459 39.35330353 -15.5625 36.5 C-21.44935293 30.34556285 -22.99153669 25.48873954 -22.8125 17.15234375 C-22.23958448 11.0740681 -19.06327786 7.37276234 -14.5625 3.5 C-9.60790661 0.46402512 -5.64885388 -0.01973399 0 0 Z " fill="#000000" transform="translate(163.5625,189.5)"/>
</svg>
