<?xml version="1.0" encoding="UTF-8"?>
<svg version="1.1" xmlns="http://www.w3.org/2000/svg" width="512" height="512">
<path d="M0 0 C11.11033827 10.52444152 13.22115599 29.26508412 16.828125 43.6328125 C17.26666727 45.3668516 17.70553702 47.10080791 18.14471436 48.83468628 C19.05498825 52.43238951 19.96228467 56.03082498 20.8671875 59.62988281 C22.02462883 64.23289065 23.18825471 68.83430752 24.35390091 73.43524361 C25.25660697 77.00012976 26.15680637 80.56564496 27.05617523 84.13137436 C27.48456478 85.82913259 27.91355732 87.52673879 28.3431778 89.22418594 C28.9411844 91.58911819 29.5359828 93.9548344 30.12988281 96.32080078 C30.30544708 97.01280075 30.48101135 97.70480072 30.66189575 98.41777039 C32.37288369 105.26294209 33.2234972 111.72471197 33.3125 118.75 C33.34150391 119.49765625 33.37050781 120.2453125 33.40039062 121.015625 C33.51374364 131.19995754 28.47565562 139.35097273 23.3125 147.8125 C22.16472794 149.7261808 21.01762989 151.64026597 19.87109375 153.5546875 C19.25476074 154.57916992 18.63842773 155.60365234 18.00341797 156.65917969 C14.64541625 162.25885012 11.32359622 167.87963898 8.01254272 173.50717163 C6.89521521 175.40319625 5.77258379 177.29600782 4.6496582 179.1887207 C3.951056 180.37434758 3.25272021 181.56013149 2.5546875 182.74609375 C1.94093262 183.78435303 1.32717773 184.8226123 0.69482422 185.89233398 C-2.8615544 192.41338606 -5.06153102 197.59601772 -4 205 C-3.07591254 208.08727631 -1.76550661 210.87857483 -0.3125 213.75 C0.08396729 214.55711426 0.48043457 215.36422852 0.88891602 216.19580078 C8.39371417 231.09114706 17.44395198 245.09816353 28 258 C29.08667969 259.37285156 29.08667969 259.37285156 30.1953125 260.7734375 C51.74439186 287.7290959 86.96392194 322.87696569 121.8125 330.875 C130.09907786 331.63480643 137.62275561 326.80613656 144.5 322.75 C145.38856689 322.23421387 146.27713379 321.71842773 147.19262695 321.18701172 C156.61202604 315.69595516 165.95753683 310.07760862 175.29296875 304.4453125 C176.25122559 303.86942383 177.20948242 303.29353516 178.19677734 302.70019531 C180.04491552 301.57927263 181.88412018 300.44346727 183.71337891 299.29199219 C195.63562111 291.86280861 208.68956889 291.0096371 222.29345703 294.05810547 C224.2007978 294.5258317 226.10548165 295.00448476 228.0078125 295.4921875 C229.59922058 295.88729019 229.59922058 295.88729019 231.22277832 296.29037476 C233.55841644 296.87165847 235.8929067 297.45756895 238.22637939 298.04748535 C242.20070405 299.05066051 246.17871266 300.03805596 250.15771484 301.02246094 C256.70612795 302.64467888 263.25013644 304.28383467 269.79143333 305.93450546 C273.54937991 306.8827285 277.30808665 307.82764306 281.06884766 308.76464844 C284.7888687 309.69154187 288.50678963 310.62645016 292.22337341 311.56702805 C293.6163593 311.91819159 295.01003105 312.26664774 296.4044342 312.61214066 C310.3792551 316.07911031 322.87942272 319.88628704 330.75 332.71875 C337.31110104 344.6927594 336.01835636 357.11161457 334.70703125 370.296875 C334.55771802 371.85942667 334.4089402 373.42202958 334.26066589 374.98468018 C333.94871247 378.24634679 333.6292159 381.50716389 333.30444336 384.76757812 C332.89337171 388.90201027 332.5028865 393.03808204 332.11839771 397.17506027 C331.81597308 400.4003053 331.50150063 403.62429557 331.18372154 406.84806061 C331.03521718 408.37038682 330.89045508 409.89308382 330.74985695 411.41616058 C328.70458672 433.38857622 323.20722041 452.08577849 305.6875 466.8125 C287.54195809 480.10880226 265.16324807 478.91567648 244.0625 475.875 C243.27687683 475.76362701 242.49125366 475.65225403 241.68182373 475.5375061 C164.3481644 464.51033165 90.70003989 435.82411685 28 389 C27.39430176 388.54882812 26.78860352 388.09765625 26.16455078 387.6328125 C14.5543521 378.94737058 3.56608167 369.5924045 -7.05078125 359.7265625 C-8.9665657 357.94640323 -10.90045234 356.19932418 -12.85546875 354.4609375 C-85.78389423 289.30760731 -130.85464728 194.31927057 -151.8125 63.5625 C-152.64715003 45.41993739 -149.56427212 28.59544609 -137.0390625 14.84765625 C-124.95478009 3.14521919 -107.82307315 -1.69822117 -91.5625 -4 C-89.91737427 -4.23928223 -89.91737427 -4.23928223 -88.23901367 -4.48339844 C-76.13906735 -6.13922304 -63.97679788 -7.19189366 -51.8125 -8.25 C-50.79310333 -8.33894531 -49.77370667 -8.42789062 -48.72341919 -8.51953125 C-45.78087564 -8.77354759 -42.83788446 -9.02118356 -39.89453125 -9.265625 C-38.57560883 -9.37780365 -38.57560883 -9.37780365 -37.2300415 -9.49224854 C-23.10084559 -10.63280589 -11.0791375 -9.79041838 0 0 Z " fill="#000000" transform="translate(164,22)"/>
</svg>
