<?xml version="1.0" encoding="UTF-8"?>
<svg version="1.1" xmlns="http://www.w3.org/2000/svg" width="512" height="512">
<path d="M0 0 C1.14962797 0.71167446 2.27846403 1.45896659 3.375 2.25 C4.2825 2.86875 5.19 3.4875 6.125 4.125 C12.9966983 10.61493728 15.4078813 19.17312705 15.8125 28.4375 C14.62242675 57.69688718 -5.86317691 86.56746279 -21.625 110.25 C-19.8006543 110.62366699 -19.8006543 110.62366699 -17.93945312 111.00488281 C-11.72172404 112.39013445 -5.6732185 114.28088178 0.40625 116.171875 C1.63734497 116.55434387 2.86843994 116.93681274 4.13684082 117.33087158 C6.7297368 118.13805998 9.32142953 118.94900258 11.91259766 119.76171875 C15.20674526 120.79382607 18.50590315 121.80883685 21.80649567 122.82011032 C24.98954385 123.79976629 28.1661191 124.79979076 31.34375 125.796875 C32.51587036 126.15336121 33.68799072 126.50984741 34.89562988 126.87713623 C46.61569699 130.6043563 55.77653056 136.04367193 61.55322266 147.20654297 C62.22654265 148.62976586 62.88810611 150.05859795 63.5390625 151.4921875 C63.89841888 152.25999542 64.25777527 153.02780334 64.62802124 153.81887817 C65.76253902 156.24952041 66.88139428 158.68700077 68 161.125 C68.75680389 162.75177169 69.51460876 164.37807809 70.2734375 166.00390625 C71.99447064 169.70085182 73.71126426 173.39951041 75.4006958 177.11102295 C76.09074401 178.62594743 76.78768991 180.13773875 77.48944092 181.64727783 C78.03293182 182.83338654 78.03293182 182.83338654 78.58740234 184.04345703 C78.91767426 184.75776886 79.24794617 185.47208069 79.58822632 186.20803833 C80.81542936 189.39307316 80.90018054 191.90197404 80.375 195.25 C78.875 197.6875 78.875 197.6875 76.375 199.25 C73.57031045 199.85921535 71.12763191 200.11557371 68.375 199.25 C64.47932553 195.09002027 62.32401381 190.33663413 59.96875 185.22265625 C59.35888245 183.92285072 59.35888245 183.92285072 58.73669434 182.5967865 C57.4430533 179.83830093 56.1582441 177.07583583 54.875 174.3125 C53.59110163 171.55305864 52.30517065 168.79464653 51.01330566 166.03892517 C50.21154294 164.32824845 49.41433886 162.61542528 48.62243652 160.90016174 C43.96195872 150.89196877 43.96195872 150.89196877 34.89767456 145.14193726 C30.53505377 143.5994537 26.15084024 142.17461526 21.72265625 140.83203125 C20.7413121 140.52931808 19.75996796 140.22660492 18.74888611 139.91471863 C15.64667698 138.95872477 12.54223611 138.01025139 9.4375 137.0625 C6.30820316 136.1026888 3.17940121 135.14130218 0.0511322 134.17814636 C-1.88798731 133.58159053 -3.82777763 132.98720994 -5.76829529 132.3952179 C-6.64002884 132.12791367 -7.51176239 131.86060944 -8.40991211 131.58520508 C-9.56166176 131.23357048 -9.56166176 131.23357048 -10.73667908 130.87483215 C-12.625 130.25 -12.625 130.25 -14.625 129.25 C-14.29516113 129.95455322 -13.96532227 130.65910645 -13.62548828 131.38500977 C-1.31328448 157.6971435 10.9957993 184.01718179 22.9375 210.5 C23.46500854 211.66813232 23.46500854 211.66813232 24.00317383 212.85986328 C28.43049672 222.73752825 29.33646559 232.12891777 25.7421875 242.42578125 C23.67438877 247.77833525 21.38442063 253.03524485 19.08691406 258.29248047 C17.1755102 262.6833063 15.34728297 267.10738499 13.5234375 271.53515625 C13.18539597 272.35543808 12.84735443 273.17571991 12.49906921 274.02085876 C11.79666714 275.72539621 11.09433166 277.4299611 10.39205933 279.134552 C8.56027442 283.57241664 6.71548378 288.00486267 4.87109375 292.4375 C0.88368381 302.02376088 -3.09486268 311.61367201 -7.07009888 321.20498657 C-8.4814564 324.60997285 -9.89334214 328.01473999 -11.30522156 331.41950989 C-14.15884897 338.30110762 -17.0120235 345.18289247 -19.86349487 352.06538391 C-20.58441635 353.80494838 -21.30570922 355.54435899 -22.02737427 357.28361511 C-23.80696419 361.57347068 -25.58088254 365.86548361 -27.34228516 370.1628418 C-30.47570664 377.78939952 -33.65038151 385.38256868 -37.06155396 392.8898468 C-38.54538527 396.16070575 -39.99929969 399.44448966 -41.45184326 402.7293396 C-42.14062559 404.26254507 -42.84471086 405.78898411 -43.56524658 407.30752563 C-47.61106652 415.44774882 -47.61106652 415.44774882 -48.17602539 424.29760742 C-46.90246237 427.46703344 -45.33006168 430.29003637 -43.625 433.25 C-42.62873432 435.30501638 -41.67798293 437.3778683 -40.72796631 439.45463562 C-39.68216991 441.73641693 -38.61182134 444.00504874 -37.53320312 446.27148438 C-36.98418335 447.4252356 -36.98418335 447.4252356 -36.42407227 448.60229492 C-36.05725342 449.3729126 -35.69043457 450.14353027 -35.3125 450.9375 C-34.22002753 453.23955642 -33.12834499 455.54198396 -32.03738403 457.84475708 C-31.31425933 459.36784748 -30.58858607 460.88973061 -29.86032104 462.41036987 C-28.01838818 466.2638403 -26.22532801 470.12974099 -24.51025391 474.04150391 C-23.99239067 475.2009124 -23.99239067 475.2009124 -23.46406555 476.38374329 C-22.81330158 477.84470579 -22.17589393 479.3117242 -21.55485535 480.78556824 C-19.44879063 485.46647833 -17.39588029 487.92761192 -12.625 490.25 C-6.79410557 491.9759878 -2.53953334 490.95587517 2.8671875 488.28515625 C3.55400604 487.96523209 4.24082458 487.64530792 4.94845581 487.31568909 C6.3857341 486.64360577 7.81905902 485.96300656 9.24841309 485.27423096 C11.28025348 484.29563289 13.32124211 483.3406195 15.36816406 482.39404297 C18.71834363 480.84138052 22.05812366 479.26780428 25.39453125 477.68579102 C29.09676064 475.93040883 32.80261481 474.18269934 36.5078125 472.43359375 C37.63174408 471.90262589 37.63174408 471.90262589 38.77838135 471.3609314 C45.96613165 467.966678 53.16906185 464.60542209 60.375 461.25 C71.81780771 455.91980325 83.24200854 450.55085528 94.66067505 445.16915894 C103.34777266 441.07572407 112.04217999 436.99905031 120.75537109 432.96142578 C123.09131649 431.87858603 125.4263098 430.79368957 127.76025391 429.70654297 C132.88813459 427.31894637 138.02224791 424.95325862 143.19140625 422.65625 C144.07513916 422.25656006 144.95887207 421.85687012 145.86938477 421.44506836 C147.47164032 420.72082949 149.07978324 420.00939055 150.69506836 419.31469727 C155.46305566 417.13713498 157.83041531 415.02029911 160.375 410.25 C163.57104152 400.66187545 155.78345035 389.45063851 151.68502808 380.90350342 C150.14666802 377.6952931 148.6196795 374.48171081 147.09181213 371.26849365 C146.31086683 369.62648467 145.52932021 367.98476154 144.74717712 366.34332275 C141.22818885 358.95601802 137.76304123 351.54446656 134.3125 344.125 C129.34091796 333.44485975 124.33496476 322.7813003 119.3125 312.125 C113.94631393 300.73863939 108.61779511 289.33602282 103.33032227 277.9128418 C100.28043838 271.3315134 97.20933722 264.76077859 94.1171875 258.19921875 C93.7542157 257.42893341 93.3912439 256.65864807 93.01727295 255.86502075 C91.23562534 252.08544843 89.45198216 248.30683018 87.66601562 244.52929688 C87.01430774 243.14844466 86.36261434 241.76758561 85.7109375 240.38671875 C85.41774628 239.76810471 85.12455505 239.14949066 84.82247925 238.51213074 C78.52238703 225.1525246 78.52238703 225.1525246 79.375 220.25 C81.83094125 216.92725596 83.3006644 215.47381992 87.375 214.625 C91.43824082 215.47150851 92.6632218 217.12633558 95.375 220.25 C96.89809774 222.76837039 98.12374428 225.39033444 99.34375 228.06640625 C99.87924973 229.20640327 99.87924973 229.20640327 100.42556763 230.36943054 C101.58573645 232.84576665 102.73040749 235.32893114 103.875 237.8125 C104.68312485 239.54504314 105.49221648 241.27713565 106.30224609 243.00878906 C108.30918911 247.30559947 110.3039106 251.60793893 112.29382324 255.91265869 C113.81836484 259.208488 115.35054923 262.5007221 116.8828125 265.79296875 C118.96180579 270.26342928 121.03504391 274.73650319 123.10546875 279.2109375 C126.80754686 287.198134 130.55921371 295.16178093 134.3125 303.125 C139.63927077 314.42724383 144.9465616 325.73814798 150.22015381 337.06530762 C153.66899147 344.47270507 157.13596531 351.87109653 160.62890625 359.2578125 C161.35352159 360.79166385 162.07813099 362.32551801 162.80273438 363.859375 C164.18514734 366.78528918 165.57106081 369.70950911 166.95898438 372.6328125 C180.61258443 401.46516814 180.61258443 401.46516814 177.22265625 413.9921875 C171.77299508 428.50787485 160.32973536 433.56097552 147.125 439.8125 C145.64645666 440.52010281 144.16818915 441.22828223 142.69018555 441.93701172 C130.13138533 447.94531721 117.50607497 453.81110343 104.86279297 459.63916016 C98.81778647 462.43105102 92.78373542 465.24636244 86.75 468.0625 C86.1322168 468.35064575 85.51443359 468.6387915 84.87792969 468.93566895 C77.62842613 472.31729713 70.38558484 475.71262236 63.15234375 479.12890625 C48.92796047 485.846547 34.691299 492.53678859 20.3999939 499.11114502 C18.85409199 499.82299253 17.30901194 500.53662784 15.76480103 501.25213623 C13.62034339 502.24503127 11.47278467 503.23087669 9.32421875 504.21484375 C8.37656143 504.65583153 8.37656143 504.65583153 7.40975952 505.10572815 C-1.44927366 509.13524008 -9.9898878 509.33323295 -19.19921875 506.296875 C-28.1163127 502.44859613 -33.20739842 495.61543663 -37.34375 487.0625 C-37.68498901 486.36833984 -38.02622803 485.67417969 -38.37780762 484.95898438 C-42.38651218 476.76710503 -46.25997097 468.51034288 -50.125 460.25 C-50.85919071 458.68480937 -51.59356497 457.11970483 -52.328125 455.5546875 C-54.09585474 451.78744135 -55.86114148 448.01906014 -57.625 444.25 C-60.97821139 451.29189746 -64.14096951 458.37556499 -67.0625 465.60546875 C-67.49949219 466.68479172 -67.49949219 466.68479172 -67.9453125 467.78591919 C-69.1427036 470.74948678 -70.33665066 473.71434691 -71.52050781 476.68334961 C-81.85371619 502.54742664 -81.85371619 502.54742664 -94.9609375 508.85546875 C-110.85670358 514.90534987 -126.00515239 506.39371626 -140.51599121 500.15270996 C-144.25456773 498.55250313 -148.00693824 496.98517267 -151.7578125 495.4140625 C-156.57915239 493.39303612 -161.39839933 491.36756074 -166.20898438 489.32104492 C-174.11344005 485.96150652 -182.03253091 482.6608445 -190.0234375 479.51171875 C-191.13954407 479.06940918 -191.13954407 479.06940918 -192.27819824 478.61816406 C-195.78810949 477.22747748 -199.30213131 475.85047457 -202.82714844 474.49853516 C-204.07513232 474.00619879 -205.32286855 473.51323405 -206.5703125 473.01953125 C-207.64812988 472.60292236 -208.72594727 472.18631348 -209.83642578 471.75708008 C-213.06621067 470.01154846 -214.66675188 468.34105298 -216.625 465.25 C-216.56471156 461.75327038 -216.32277177 459.3517449 -214.4375 456.375 C-211.80477467 454.74089462 -209.71849251 454.50071354 -206.625 454.25 C-204.08300729 454.98205442 -201.86607177 455.76441775 -199.45703125 456.80078125 C-198.76084183 457.08632874 -198.0646524 457.37187622 -197.34736633 457.66607666 C-195.03798389 458.61752175 -192.73802167 459.58984754 -190.4375 460.5625 C-188.81090736 461.23750901 -187.18377969 461.91123002 -185.55615234 462.58374023 C-181.16534758 464.4027129 -176.78268307 466.24054465 -172.40179443 468.08325195 C-167.65257031 470.07877164 -162.89811924 472.0617789 -158.14453125 474.046875 C-152.54663419 476.38553003 -146.94988255 478.72676576 -141.35864258 481.08129883 C-133.6470762 484.32801089 -125.93264179 487.56796409 -118.1796875 490.71484375 C-117.02710449 491.18398193 -115.87452148 491.65312012 -114.68701172 492.13647461 C-108.89368354 494.24326538 -105.48410684 494.55179197 -99.625 492.25 C-95.46766217 488.71226152 -93.300853 485.05474339 -91.3046875 480.06640625 C-91.00862106 479.35594147 -90.71255463 478.64547668 -90.40751648 477.91348267 C-89.42650254 475.55119362 -88.46336819 473.18203387 -87.5 470.8125 C-86.801829 469.12168501 -86.10250129 467.43134725 -85.40209961 465.74145508 C-83.907691 462.1296372 -82.42088861 458.51481891 -80.93994141 454.89746094 C-78.62364155 449.24094958 -76.28826292 443.59244987 -73.94921875 437.9453125 C-70.74497946 430.20572268 -67.54738298 422.46343078 -64.35546875 414.71875 C-59.91759948 403.95253438 -55.46239244 393.19357108 -51 382.4375 C-50.2995599 380.74894232 -49.59912045 379.06038438 -48.89868164 377.37182617 C-47.50516904 374.01264408 -46.11150582 370.65352451 -44.71777344 367.29443359 C-41.5403393 359.6360264 -38.36502271 351.97674117 -35.18951416 344.3175354 C-33.41809311 340.04498891 -31.64653998 335.77249718 -29.875 331.5 C-29.16666603 329.79166693 -28.4583327 328.0833336 -27.75 326.375 C-26.33333333 322.95833333 -24.91666667 319.54166667 -23.5 316.125 C-23.14945053 315.27955627 -22.79890106 314.43411255 -22.43772888 313.56304932 C-21.72863515 311.85288388 -21.01953887 310.14271949 -20.31044006 308.43255615 C-18.55122009 304.18976267 -16.7920428 299.9469515 -15.03295898 295.70410156 C-11.7070004 287.68213369 -8.38058124 279.66035757 -5.05276489 271.63916016 C-3.47707561 267.8411301 -1.9016147 264.04300534 -0.32617188 260.24487305 C0.4264806 258.4305352 1.17924554 256.616244 1.93212891 254.80200195 C2.97456675 252.28999355 4.0166205 249.77782614 5.05859375 247.265625 C5.36611069 246.52487732 5.67362762 245.78412964 5.99046326 245.02093506 C6.78768053 243.09827173 7.58150293 241.17420167 8.375 239.25 C8.76324951 238.35224854 9.15149902 237.45449707 9.55151367 236.52954102 C11.90168281 230.02389938 10.67107189 224.27252945 7.9453125 218.08203125 C7.11321786 216.3521601 6.28006824 214.62263649 5.42160034 212.90570068 C4.47006828 211.00263656 3.54218552 209.08951213 2.61938477 207.17236328 C1.61700889 205.09076912 0.61309911 203.01005077 -0.39775085 200.93255615 C-4.22987955 193.05238395 -7.88295217 185.09133531 -11.53781128 177.12780762 C-13.06505725 173.80307913 -14.5990219 170.48147016 -16.13294983 167.15982056 C-18.95091417 161.05756548 -21.76357949 154.95297259 -24.5606842 148.84112549 C-25.74295767 146.25959569 -26.92928478 143.67994196 -28.11642456 141.10064697 C-28.90774408 139.37730276 -29.69336489 137.65134533 -30.47875977 135.92529297 C-35.23644678 124.49486801 -35.23644678 124.49486801 -43.9375 116.25 C-45.16666667 115.58333333 -46.39583333 114.91666667 -47.625 114.25 C-48.09579992 117.16476128 -48.52724418 120.07664707 -48.9375 123 C-49.07478516 123.825 -49.21207031 124.65 -49.35351562 125.5 C-49.66460038 127.8378491 -49.87649433 129.9034834 -49.625 132.25 C-47.42055389 134.63856619 -47.42055389 134.63856619 -44.625 136.25 C-43.078125 138.46875 -43.078125 138.46875 -41.875 140.75 C-41.26398438 141.87921875 -41.26398438 141.87921875 -40.640625 143.03125 C-37.53033388 149.82603982 -37.68149039 157.36184441 -40.0625 164.375 C-42.96730773 170.84711546 -47.70852906 175.31703208 -54.046875 178.4453125 C-61.06085563 180.92477699 -68.18462177 180.97796114 -75.14453125 178.26953125 C-82.13961757 174.68498453 -86.81689183 169.69148665 -89.625 162.25 C-91.15196696 154.81484549 -90.96539567 148.14814586 -87.625 141.25 C-83.92215365 135.72436072 -79.68219392 131.95410443 -73.625 129.25 C-71.315 128.92 -69.005 128.59 -66.625 128.25 C-65.965 122.97 -65.305 117.69 -64.625 112.25 C-83.97744217 119.2283339 -103.20734923 126.49357846 -122.37451172 133.96606445 C-130.7800015 137.23986923 -139.18665547 140.4876409 -147.67578125 143.5390625 C-149.02800824 144.03033803 -150.3801439 144.52186502 -151.73217773 145.01367188 C-154.1561741 145.8949427 -156.58438295 146.74825674 -159.02368164 147.58789062 C-160.61684204 148.16700195 -160.61684204 148.16700195 -162.2421875 148.7578125 C-163.14565918 149.07379395 -164.04913086 149.38977539 -164.97998047 149.71533203 C-171.51173422 153.5051238 -174.65551176 159.64605252 -177.33203125 166.4609375 C-177.65430191 167.248741 -177.97657257 168.03654449 -178.30860901 168.84822083 C-179.3639466 171.43564683 -180.40051601 174.03017046 -181.4375 176.625 C-182.1849403 178.46582801 -182.93382839 180.30606876 -183.68408203 182.14575195 C-185.23883262 185.96129994 -186.78736096 189.77928436 -188.33154297 193.59912109 C-191.49017741 201.39913652 -194.72511715 209.16719253 -197.95932007 216.93609619 C-199.72427876 221.1783942 -201.48327929 225.42315932 -203.2421875 229.66796875 C-203.59735947 230.5249939 -203.95253143 231.38201904 -204.31846619 232.26501465 C-208.59609961 242.58971128 -212.86031105 252.91995165 -217.125 263.25 C-225.24144536 282.90987999 -233.38106749 302.56005716 -241.53222656 322.20556641 C-243.64459644 327.29690361 -245.7559895 332.38864552 -247.8671875 337.48046875 C-248.39495285 338.75313599 -248.39495285 338.75313599 -248.93338013 340.05151367 C-250.69521503 344.30029187 -252.45616665 348.54943217 -254.21533203 352.79931641 C-257.5355787 360.81785003 -260.86501282 368.83224595 -264.22302246 376.83505249 C-265.81148853 380.62208874 -267.39530548 384.41106125 -268.97875977 388.20019531 C-269.73603599 390.00862578 -270.49559746 391.81610118 -271.25756836 393.62255859 C-272.31290143 396.1249044 -273.36036616 398.63041185 -274.40625 401.13671875 C-274.71892822 401.87230515 -275.03160645 402.60789154 -275.35375977 403.36576843 C-277.52824432 408.60805357 -278.9683961 413.07515804 -278.0625 418.8125 C-274.40143476 427.56722122 -264.80801275 430.01620726 -256.625 433.375 C-254.12353301 434.41578894 -251.62437302 435.46199434 -249.125 436.5078125 C-247.46984375 437.19061279 -247.46984375 437.19061279 -245.78125 437.88720703 C-237.00820058 441.67519913 -237.00820058 441.67519913 -234.625 445.25 C-234.01953162 449.22879218 -234.32654586 450.79750501 -236.5625 454.1875 C-240.0474466 456.53450485 -241.69464966 456.4857701 -245.7644043 455.91625977 C-251.39659799 454.60446864 -256.68540654 452.35662013 -261.99926758 450.11474609 C-264.0459157 449.25695084 -266.10448567 448.43454715 -268.16601562 447.61328125 C-279.15226382 443.10651459 -288.85709835 437.20809705 -293.78515625 425.84375 C-298.38460393 411.63894416 -292.25671355 398.68245356 -286.64846802 385.73812866 C-284.83946974 381.56125592 -283.06147685 377.37113199 -281.27734375 373.18359375 C-280.89956284 372.29934219 -280.52178192 371.41509064 -280.1325531 370.50404358 C-275.72931196 360.18499842 -271.45893368 349.81162005 -267.1875 339.4375 C-265.97900269 336.50578636 -264.77012479 333.57422985 -263.56121826 330.64268494 C-262.75873107 328.69665858 -261.9563625 326.75058329 -261.15411377 324.80445862 C-257.11586578 315.01002679 -253.05974509 305.22303709 -249 295.4375 C-248.2995599 293.74894232 -247.59912045 292.06038438 -246.89868164 290.37182617 C-245.50516904 287.01264408 -244.11150582 283.65352451 -242.71777344 280.29443359 C-239.5403393 272.6360264 -236.36502271 264.97674117 -233.18951416 257.3175354 C-231.41809311 253.04498891 -229.64653998 248.77249718 -227.875 244.5 C-227.16666603 242.79166693 -226.4583327 241.0833336 -225.75 239.375 C-221.5 229.125 -221.5 229.125 -220.43766785 226.56297302 C-219.72871067 224.85308963 -219.01981794 223.14317951 -218.31098938 221.4332428 C-216.55022582 217.18590495 -214.78837753 212.9390238 -213.02416992 208.69311523 C-209.71514017 200.72603295 -206.41735189 192.75480184 -203.15591431 184.76809692 C-201.62333238 181.01689428 -200.0848384 177.2681292 -198.54589844 173.51953125 C-197.81752295 171.74062654 -197.09201086 169.96054621 -196.36962891 168.17919922 C-185.18808205 140.61208205 -185.18808205 140.61208205 -172.41894531 134.78759766 C-168.38991295 133.13112296 -164.33066997 131.58573906 -160.25 130.0625 C-158.69503493 129.47112723 -157.1405228 128.87856234 -155.58642578 128.28491211 C-152.16650509 126.9813334 -148.74360115 125.68601573 -145.31835938 124.39648438 C-139.12851884 122.06545718 -132.94690607 119.71298836 -126.765625 117.359375 C-120.2328539 114.87254783 -113.6996654 112.38689158 -107.16259766 109.91137695 C-106.14496338 109.52583649 -105.1273291 109.14029602 -104.07885742 108.74307251 C-102.0830015 107.98713423 -100.08691243 107.23181121 -98.09057617 106.47714233 C-93.49706324 104.73676617 -88.91340229 102.97716919 -84.34912109 101.16137695 C-83.52928741 100.8364476 -82.70945374 100.51151825 -81.86477661 100.17674255 C-80.3566953 99.57678766 -78.85069004 98.97157248 -77.34738159 98.35975647 C-72.01454401 96.23946536 -67.34296527 95.34222525 -61.625 95.25 C-61.56566284 94.11860596 -61.56566284 94.11860596 -61.50512695 92.96435547 C-60.97851502 84.66062271 -59.77859515 76.58270544 -58.20581055 68.42138672 C-57.8145105 66.38546057 -57.43677841 64.34735202 -57.06054688 62.30859375 C-53.32415801 42.39461288 -48.56738677 17.3228293 -31.625 4.25 C-22.4516543 -1.62523646 -10.42139654 -5.10068353 0 0 Z M-27.96484375 24.73046875 C-36.91698655 38.31666194 -39.40464874 55.42457192 -42.375 71.125 C-42.69114258 72.78112305 -42.69114258 72.78112305 -43.01367188 74.47070312 C-44.39335498 82.04765131 -45.17441192 89.56321941 -45.625 97.25 C-45.04016846 97.56638428 -44.45533691 97.88276855 -43.8527832 98.20874023 C-42.45784505 98.96337891 -41.0629069 99.71801758 -39.66796875 100.47265625 C-37.47802199 101.55263511 -37.47802199 101.55263511 -34.625 100.25 C-33.19944436 98.52320301 -33.19944436 98.52320301 -31.91015625 96.33203125 C-31.13696045 95.08522583 -31.13696045 95.08522583 -30.34814453 93.81323242 C-29.52612549 92.45161987 -29.52612549 92.45161987 -28.6875 91.0625 C-28.11628418 90.12575439 -27.54506836 89.18900879 -26.95654297 88.22387695 C-7.38570587 58.31558253 -7.38570587 58.31558253 -0.625 24.25 C-1.83055234 20.37954248 -2.77005495 18.00723704 -5.8125 15.3125 C-16.05058947 11.44477731 -22.06545847 16.70471163 -27.96484375 24.73046875 Z M-71.625 147.25 C-73.93641604 150.10074644 -74.625 151.5639451 -74.625 155.25 C-73.34584913 159.0874526 -71.80920931 160.77339276 -68.625 163.25 C-65.72793293 164.49677006 -65.72793293 164.49677006 -62.625 164.25 C-58.92507723 162.25773389 -56.96165039 160.75497559 -54.625 157.25 C-53.98143746 153.11281226 -54.44872851 151.53310269 -56.6875 147.9375 C-61.62673548 143.41862499 -66.40398267 142.89915223 -71.625 147.25 Z " fill="#000000" transform="translate(314.625,1.75)"/>
<path d="M0 0 C17.27974813 14.56755466 28.60533279 33.44055575 31.6875 56.0625 C31.82488233 58.43498721 31.90670611 60.81123798 31.9375 63.1875 C31.97617187 64.98574219 31.97617187 64.98574219 32.015625 66.8203125 C31.66292609 70.30531366 31.196095 71.66347582 28.6875 74.0625 C25.25859774 74.93531149 22.79490423 75.39172829 19.375 74.375 C16.21807669 71.9196152 15.73085419 69.40229314 15.23046875 65.48046875 C15.11053366 64.07043471 14.99212734 62.66027005 14.875 61.25 C12.92857081 42.32265404 4.83302557 27.23842478 -9.171875 14.3515625 C-22.89982127 3.2636059 -40.82109354 -2.07019382 -58.3125 -0.9375 C-75.18094912 0.95570417 -90.72996479 8.56555411 -102.3125 21.0625 C-103.240625 21.990625 -104.16875 22.91875 -105.125 23.875 C-116.37495743 37.19425012 -121.51744879 55.93050131 -120.14892578 73.11669922 C-117.97905298 91.61608514 -109.40096636 107.85243832 -95.15625 119.96484375 C-79.64855686 131.40389762 -61.40559848 136.50666459 -42.23291016 133.76513672 C-22.60595095 130.303748 -8.01322203 120.07730744 4.01171875 104.4921875 C6.13039972 101.42034703 7.87452659 98.23886235 9.484375 94.875 C10.96618994 92.64265542 12.18899959 91.97321293 14.6875 91.0625 C18.54802755 91.14292766 20.19677221 91.63468603 23.125 94.1875 C24.72776136 97.13658091 25.14285334 98.72450663 24.40234375 102.00390625 C18.25691413 119.70140031 2.72321898 134.22633382 -13.72436523 142.44555664 C-34.89887563 152.53410715 -58.84951478 154.44327617 -81.18359375 146.7734375 C-103.55839546 138.59964801 -120.2954727 122.28114262 -130.47558594 100.92773438 C-139.63561008 80.51274475 -139.03460354 57.857889 -132.1875 36.9375 C-123.75244139 14.96594015 -107.71065373 -1.41762237 -86.44921875 -11.24609375 C-58.06700707 -23.44268269 -24.33160781 -18.91634144 0 0 Z " fill="#000000" transform="translate(239.3125,246.9375)"/>
<path d="M0 0 C1.9453125 0.390625 1.9453125 0.390625 4.5078125 2.140625 C6.74987516 7.20963623 5.73456355 12.01170754 4.9453125 17.390625 C5.47640625 17.5865625 6.0075 17.7825 6.5546875 17.984375 C11.522525 20.08754708 14.26947882 22.13364269 16.38671875 27.16796875 C17.37083893 31.08380361 17.10950346 34.5427471 15.9453125 38.390625 C14.3203125 40.953125 14.3203125 40.953125 11.9453125 42.390625 C7.93504173 42.96352082 5.87302429 43.03288701 2.5078125 40.703125 C0.66408274 37.97440495 0.81208319 36.6041159 0.9453125 33.390625 C-0.95014142 32.90995965 -2.84606789 32.43115757 -4.7421875 31.953125 C-6.32580078 31.55287109 -6.32580078 31.55287109 -7.94140625 31.14453125 C-8.96878906 30.89574219 -9.99617188 30.64695312 -11.0546875 30.390625 C-11.94800781 30.15214844 -12.84132812 29.91367187 -13.76171875 29.66796875 C-16.33096954 29.10493654 -16.33096954 29.10493654 -19.0546875 31.390625 C-19.3049032 34.47428371 -19.3049032 34.47428371 -19.0546875 37.390625 C-18.3534375 37.56078125 -17.6521875 37.7309375 -16.9296875 37.90625 C-7.38690562 40.34380841 0.39016456 42.79380589 5.9453125 51.390625 C8.62108087 57.55652603 8.54108958 64.1159268 6.19140625 70.41015625 C4.01626961 74.58751071 1.17569226 78.25521342 -3.0546875 80.390625 C-5.25435979 80.85083041 -7.46425379 81.2635299 -9.6796875 81.640625 C-14.36072103 82.44290766 -14.36072103 82.44290766 -17.71484375 85.50390625 C-18.77720991 87.90951901 -18.77720991 87.90951901 -19.44140625 90.33203125 C-20.0546875 92.390625 -20.0546875 92.390625 -22.0546875 94.390625 C-25.51882329 95.64156292 -26.83221698 95.48046887 -30.3046875 94.078125 C-33.0546875 92.390625 -33.0546875 92.390625 -34.0546875 90.390625 C-34.33311804 85.56449557 -33.81114477 81.89154674 -32.0546875 77.390625 C-33.385 77.019375 -33.385 77.019375 -34.7421875 76.640625 C-39.07011248 75.00744576 -42.00652559 73.187474 -44.3671875 69.140625 C-45.59552723 64.22726609 -45.8527686 60.09561644 -43.6796875 55.453125 C-41.57242068 52.77851711 -40.61779414 52.46570589 -37.2421875 52.015625 C-32.97412986 52.51774943 -31.6867599 54.08173398 -29.0546875 57.390625 C-28.93287109 58.39416016 -28.93287109 58.39416016 -28.80859375 59.41796875 C-28.19134097 61.71663446 -28.19134097 61.71663446 -25.2890625 62.69140625 C-24.13921875 63.02527344 -22.989375 63.35914063 -21.8046875 63.703125 C-20.09539062 64.22326172 -20.09539062 64.22326172 -18.3515625 64.75390625 C-15.11758091 65.37847852 -13.18137472 65.3015959 -10.0546875 64.390625 C-9.36309349 62.54337448 -9.36309349 62.54337448 -9.0546875 60.390625 C-11.8798224 56.15292264 -15.71306089 55.71769882 -20.38085938 54.37304688 C-25.7277611 52.73883062 -29.37215616 50.75863208 -32.63671875 46.1640625 C-36.09158899 39.42980749 -37.63297045 33.60824274 -35.390625 26.1953125 C-33.18110759 21.14224225 -29.94586528 17.02563127 -25.0546875 14.390625 C-22.81828748 13.86996734 -20.56580293 13.41553307 -18.3046875 13.015625 C-13.84856276 12.34942391 -13.84856276 12.34942391 -10.65625 9.5390625 C-9.88666348 7.43107763 -9.88666348 7.43107763 -9.546875 5.328125 C-8.27884306 0.33650721 -4.80094436 -0.24801927 0 0 Z " fill="#000000" transform="translate(201.0546875,267.609375)"/>
<path d="M0 0 C3.77074684 1.18572313 5.60095403 4.90848733 7.44116211 8.23071289 C8.10257202 9.62084595 8.10257202 9.62084595 8.77734375 11.0390625 C9.28354248 12.09585205 9.78974121 13.1526416 10.3112793 14.24145508 C10.84793213 15.37993896 11.38458496 16.51842285 11.9375 17.69140625 C12.51496036 18.90474123 13.09285003 20.11787198 13.67114258 21.33081055 C18.09610195 30.6327032 22.43240299 39.97618684 26.75146484 49.32763672 C32.38439665 61.50899926 38.14370287 73.63006737 43.90893555 85.74926758 C44.28297516 86.53657257 44.65701477 87.32387756 45.04238892 88.13504028 C45.7387307 89.60065755 46.43597518 91.06584647 47.1343689 92.53048706 C48.0980471 94.55942916 49.04993524 96.59355848 50 98.62890625 C50.37357635 99.4127066 50.74715271 100.19650696 51.13204956 101.00405884 C51.49960358 101.79460663 51.86715759 102.58515442 52.24584961 103.3996582 C52.58289413 104.11595901 52.91993866 104.83225983 53.26719666 105.57026672 C54.44028975 108.86579728 53.98643535 111.34078842 53 114.62890625 C51.43098366 116.98243076 50.3266259 117.50531807 47.6875 118.50390625 C43.9911843 118.67582791 42.13754413 117.55509606 39 115.62890625 C37.23999023 113.07055664 37.23999023 113.07055664 35.80859375 109.9765625 C35.26364258 108.82293213 34.71869141 107.66930176 34.15722656 106.48071289 C33.58365165 105.21776173 33.0104192 103.954655 32.4375 102.69140625 C31.8229664 101.37348415 31.20672526 100.05635706 30.58886719 98.73999023 C29.00628159 95.35722312 27.44540426 91.96492874 25.89056396 88.56933594 C24.54907579 85.64639769 23.1904396 82.73151195 21.83203125 79.81640625 C20.28282739 76.48925043 18.73600886 73.16110972 17.19726562 69.82910156 C11.58550121 57.67932626 5.83990853 45.59333473 0.09082031 33.50805664 C-0.28318405 32.72082214 -0.65718842 31.93358765 -1.04252625 31.12249756 C-1.73881566 29.6569813 -2.43600927 28.1918941 -3.13435364 26.72735596 C-4.0980481 24.69838122 -5.05178382 22.66515875 -6 20.62890625 C-6.36705048 19.8443808 -6.73410095 19.05985535 -7.11227417 18.2515564 C-7.4747525 17.46044464 -7.83723083 16.66933289 -8.21069336 15.85424805 C-8.54121201 15.13722214 -8.87173065 14.42019623 -9.21226501 13.68144226 C-10.43649072 10.49157841 -10.52585022 7.98120141 -10 4.62890625 C-7.41070178 0.42129664 -4.59743872 0.15264933 0 0 Z " fill="#000000" transform="translate(387,286.37109375)"/>
<path d="M0 0 C3.19435392 2.77799412 4.97608736 5.50527654 6.77734375 9.3125 C7.28354248 10.37251221 7.78974121 11.43252441 8.3112793 12.5246582 C8.84793213 13.671521 9.38458496 14.81838379 9.9375 16 C10.51475036 17.21799107 11.09264404 18.43567744 11.67114258 19.65307617 C16.08973383 28.97396613 20.42610003 38.33406474 24.75146484 47.69848633 C30.38410599 59.88006328 36.14367229 72.00109683 41.90893555 84.12036133 C42.28297516 84.90766632 42.65701477 85.69497131 43.04238892 86.50613403 C43.7387307 87.9717513 44.43597518 89.43694022 45.1343689 90.90158081 C46.09805785 92.93054556 47.05178862 94.96375782 48 97 C48.55057571 98.17678818 48.55057571 98.17678818 49.11227417 99.37734985 C49.65599167 100.56401749 49.65599167 100.56401749 50.21069336 101.7746582 C50.54121201 102.49168411 50.87173065 103.20871002 51.21226501 103.94746399 C52.43649072 107.13732784 52.52585022 109.64770484 52 113 C50.5 115.4375 50.5 115.4375 48 117 C45.19531045 117.60921535 42.75263191 117.86557371 40 117 C36.37097384 113.06021131 34.24499774 108.75830802 32.015625 103.95703125 C31.64303558 103.16868393 31.27044617 102.38033661 30.88656616 101.56809998 C29.66801045 98.98584443 28.45896276 96.39925882 27.25 93.8125 C26.39951943 92.00525437 25.54843787 90.19829144 24.69677734 88.39160156 C22.9611719 84.70695331 21.22939974 81.02054224 19.50097656 77.33251953 C17.22502717 72.47689162 14.93894696 67.62611724 12.6484375 62.77734375 C10.65194903 58.55097295 8.65762337 54.32367831 6.67700195 50.08984375 C6.03859088 48.72525262 5.4001633 47.36066921 4.76171875 45.99609375 C4.45130142 45.33253876 4.14088409 44.66898376 3.82106018 43.98532104 C1.92651949 39.94553928 0.00147692 35.92194488 -1.94854736 31.90866089 C-3.20208251 29.32444329 -4.44252181 26.73405944 -5.68121338 24.1427002 C-6.53540531 22.36876854 -7.40780249 20.60363899 -8.28076172 18.83886719 C-12.9300771 9.07308742 -12.9300771 9.07308742 -11 3 C-8.7860583 -1.03718781 -4.11975154 -1.00423886 0 0 Z " fill="#000000" transform="translate(355,305)"/>
</svg>
